<mxGraphModel dx="1422" dy="794" grid="1" gridSize="10" guides="1" tooltips="1" connect="1" arrows="1" fold="1" page="1" pageScale="1" pageWidth="827" pageHeight="1169" math="0" shadow="0">
  <root>
    <mxCell id="0"/>
    <mxCell id="1" parent="0"/>
    <mxCell id="2" value="Azure Web Application Architecture" style="text;html=1;strokeColor=none;fillColor=none;align=center;verticalAlign=middle;whiteSpace=wrap;rounded=0;fontSize=20;fontStyle=1;" vertex="1" parent="1">
      <mxGeometry x="250" y="20" width="350" height="30" as="geometry"/>
    </mxCell>
    <mxCell id="3" value="Internet" style="ellipse;whiteSpace=wrap;html=1;fillColor=#e3f2fd;strokeColor=#0078d4;strokeWidth=2;" vertex="1" parent="1">
      <mxGeometry x="350" y="70" width="120" height="50" as="geometry"/>
    </mxCell>
    <mxCell id="4" value="Azure Front Door" style="rounded=1;whiteSpace=wrap;html=1;fillColor=#ffffff;strokeColor=#0078d4;strokeWidth=2;" vertex="1" parent="1">
      <mxGeometry x="350" y="150" width="120" height="40" as="geometry"/>
    </mxCell>
    <mxCell id="5" value="Application Gateway" style="rounded=1;whiteSpace=wrap;html=1;fillColor=#ffffff;strokeColor=#0078d4;strokeWidth=2;" vertex="1" parent="1">
      <mxGeometry x="330" y="220" width="160" height="40" as="geometry"/>
    </mxCell>
    <mxCell id="6" value="Virtual Network&#xa;(10.0.0.0/16)" style="rounded=1;whiteSpace=wrap;html=1;fillColor=#e3f2fd;strokeColor=#0078d4;strokeWidth=2;verticalAlign=top;" vertex="1" parent="1">
      <mxGeometry x="200" y="290" width="400" height="300" as="geometry"/>
    </mxCell>
    <mxCell id="7" value="Web Subnet&#xa;(10.0.1.0/24)" style="rounded=1;whiteSpace=wrap;html=1;fillColor=#ffffff;strokeColor=#0078d4;strokeWidth=2;verticalAlign=top;" vertex="1" parent="1">
      <mxGeometry x="220" y="330" width="150" height="100" as="geometry"/>
    </mxCell>
    <mxCell id="8" value="App Service" style="rounded=1;whiteSpace=wrap;html=1;fillColor=#0078d4;strokeColor=#0078d4;fontColor=#ffffff;" vertex="1" parent="1">
      <mxGeometry x="235" y="370" width="120" height="40" as="geometry"/>
    </mxCell>
    <mxCell id="9" value="Database Subnet&#xa;(10.0.2.0/24)" style="rounded=1;whiteSpace=wrap;html=1;fillColor=#ffffff;strokeColor=#0078d4;strokeWidth=2;verticalAlign=top;" vertex="1" parent="1">
      <mxGeometry x="430" y="330" width="150" height="100" as="geometry"/>
    </mxCell>
    <mxCell id="10" value="SQL Database" style="rounded=1;whiteSpace=wrap;html=1;fillColor=#0078d4;strokeColor=#0078d4;fontColor=#ffffff;" vertex="1" parent="1">
      <mxGeometry x="445" y="370" width="120" height="40" as="geometry"/>
    </mxCell>
    <mxCell id="11" value="Storage Account" style="rounded=1;whiteSpace=wrap;html=1;fillColor=#ffffff;strokeColor=#0078d4;strokeWidth=2;" vertex="1" parent="1">
      <mxGeometry x="220" y="460" width="150" height="50" as="geometry"/>
    </mxCell>
    <mxCell id="12" value="Key Vault" style="rounded=1;whiteSpace=wrap;html=1;fillColor=#ffffff;strokeColor=#0078d4;strokeWidth=2;" vertex="1" parent="1">
      <mxGeometry x="430" y="460" width="150" height="50" as="geometry"/>
    </mxCell>
    <mxCell id="13" value="Application Insights" style="rounded=1;whiteSpace=wrap;html=1;fillColor=#ffffff;strokeColor=#0078d4;strokeWidth=2;" vertex="1" parent="1">
      <mxGeometry x="650" y="360" width="120" height="40" as="geometry"/>
    </mxCell>
    <mxCell id="14" value="Log Analytics" style="rounded=1;whiteSpace=wrap;html=1;fillColor=#ffffff;strokeColor=#0078d4;strokeWidth=2;" vertex="1" parent="1">
      <mxGeometry x="650" y="420" width="120" height="40" as="geometry"/>
    </mxCell>
    <mxCell id="15" value="" style="endArrow=classic;html=1;entryX=0.5;entryY=0;entryDx=0;entryDy=0;exitX=0.5;exitY=1;exitDx=0;exitDy=0;" edge="1" parent="1" source="3" target="4">
      <mxGeometry width="50" height="50" relative="1" as="geometry">
        <mxPoint x="380" y="200" as="sourcePoint"/>
        <mxPoint x="430" y="150" as="targetPoint"/>
      </mxGeometry>
    </mxCell>
    <mxCell id="16" value="" style="endArrow=classic;html=1;entryX=0.5;entryY=0;entryDx=0;entryDy=0;exitX=0.5;exitY=1;exitDx=0;exitDy=0;" edge="1" parent="1" source="4" target="5">
      <mxGeometry width="50" height="50" relative="1" as="geometry">
        <mxPoint x="380" y="200" as="sourcePoint"/>
        <mxPoint x="430" y="150" as="targetPoint"/>
      </mxGeometry>
    </mxCell>
    <mxCell id="17" value="" style="endArrow=classic;html=1;entryX=0.5;entryY=0;entryDx=0;entryDy=0;exitX=0.5;exitY=1;exitDx=0;exitDy=0;" edge="1" parent="1" source="5" target="6">
      <mxGeometry width="50" height="50" relative="1" as="geometry">
        <mxPoint x="380" y="270" as="sourcePoint"/>
        <mxPoint x="430" y="220" as="targetPoint"/>
      </mxGeometry>
    </mxCell>
    <mxCell id="18" value="" style="endArrow=classic;html=1;entryX=0;entryY=0.5;entryDx=0;entryDy=0;exitX=1;exitY=0.5;exitDx=0;exitDy=0;" edge="1" parent="1" source="8" target="10">
      <mxGeometry width="50" height="50" relative="1" as="geometry">
        <mxPoint x="380" y="390" as="sourcePoint"/>
        <mxPoint x="430" y="340" as="targetPoint"/>
      </mxGeometry>
    </mxCell>
    <mxCell id="19" value="" style="endArrow=classic;html=1;entryX=0;entryY=0.5;entryDx=0;entryDy=0;exitX=1;exitY=0.5;exitDx=0;exitDy=0;" edge="1" parent="1" source="8" target="13">
      <mxGeometry width="50" height="50" relative="1" as="geometry">
        <mxPoint x="380" y="390" as="sourcePoint"/>
        <mxPoint x="430" y="340" as="targetPoint"/>
      </mxGeometry>
    </mxCell>
    <mxCell id="20" value="" style="endArrow=classic;html=1;entryX=0;entryY=0.5;entryDx=0;entryDy=0;exitX=1;exitY=0.5;exitDx=0;exitDy=0;" edge="1" parent="1" source="10" target="14">
      <mxGeometry width="50" height="50" relative="1" as="geometry">
        <mxPoint x="580" y="390" as="sourcePoint"/>
        <mxPoint x="630" y="340" as="targetPoint"/>
      </mxGeometry>
    </mxCell>
  </root>
</mxGraphModel>
